Coordinates
version=1
nRows=27
nColumns=12
inDegrees=yes

Units are S.I. units (second, meters, Newtons, ...)
Angles are in degrees

endheader
time	SC_y	SC_z	SC_x	AC_y	AC_z	AC_x	GH_y	GH_z	GH_yy	EL_x	PS_y
       0.0               -50.0          8.852           40.2          39.53          -9.23         -12.04          31.36          11.79         -57.42          48.69          18.18
  0.002376               -50.0          8.856           40.2          39.53          -9.23         -12.04          31.36           11.8          -57.4          48.69           18.2
  0.004752              -49.99          8.859          40.19          39.54          -9.23         -12.04          31.37           11.8         -57.38          48.69          18.22
  0.007128              -49.99          8.863          40.19          39.54         -9.231         -12.04          31.38          11.81         -57.36          48.69          18.24
  0.009504              -49.98          8.867          40.19          39.55         -9.231         -12.04          31.39          11.81         -57.34          48.69          18.27
   0.01188              -49.98          8.871          40.18          39.55         -9.232         -12.04           31.4          11.82         -57.32          48.69          18.29
   0.01426              -49.98          8.875          40.18          39.56         -9.232         -12.04          31.41          11.82         -57.29          48.69          18.32
   0.01663              -49.97           8.88          40.17          39.57         -9.233         -12.05          31.42          11.83         -57.26          48.69          18.35
   0.01901              -49.97          8.885          40.17          39.57         -9.233         -12.05          31.43          11.83         -57.24          48.69          18.38
   0.02138              -49.96          8.891          40.16          39.58         -9.234         -12.05          31.44          11.84         -57.21          48.69          18.41
   0.02376              -49.96          8.896          40.15          39.59         -9.235         -12.05          31.46          11.85         -57.17          48.69          18.45
   0.02614              -49.95          8.903          40.15           39.6         -9.235         -12.05          31.47          11.85         -57.14          48.69          18.49
   0.02851              -49.94           8.91          40.14          39.61         -9.236         -12.06          31.48          11.86          -57.1          48.69          18.53
   0.03089              -49.94          8.917          40.13          39.62         -9.237         -12.06           31.5          11.87         -57.06          48.68          18.57
   0.03326              -49.93          8.925          40.13          39.63         -9.238         -12.06          31.52          11.88         -57.02          48.68          18.62
   0.03564              -49.92          8.933          40.12          39.64         -9.239         -12.06          31.54          11.89         -56.97          48.68          18.67
   0.03802              -49.91          8.943          40.11          39.65          -9.24         -12.07          31.56           11.9         -56.92          48.68          18.73
   0.04039               -49.9          8.953           40.1          39.67         -9.241         -12.07          31.58          11.91         -56.86          48.68          18.79
   0.04277              -49.89          8.964          40.09          39.68         -9.242         -12.07          31.61          11.92          -56.8          48.68          18.86
   0.04514              -49.88          8.976          40.07           39.7         -9.244         -12.08          31.63          11.94         -56.73          48.68          18.93
   0.04752              -49.87           8.99          40.06          39.72         -9.245         -12.08          31.66          11.95         -56.66          48.68          19.01
    0.0499              -49.85          9.004          40.04          39.74         -9.247         -12.09           31.7          11.97         -56.57          48.68           19.1
   0.05227              -49.84          9.021          40.03          39.76         -9.249         -12.09          31.73          11.99         -56.48          48.68           19.2
   0.05465              -49.82          9.039          40.01          39.78         -9.251          -12.1          31.77          12.01         -56.38          48.67          19.31
   0.05702               -49.8          9.059          39.99          39.81         -9.253         -12.11          31.82          12.04         -56.27          48.67          19.43
    0.0594              -49.78          9.081          39.96          39.84         -9.256         -12.11          31.87          12.06         -56.15          48.67          19.57
   0.06178              -49.75          9.106          39.94          39.88         -9.259         -12.12          31.93          12.09         -56.01          48.67          19.72
